<svg xmlns="http://www.w3.org/2000/svg" viewBox="0 0 512 512" width="512" height="512"><defs><pattern id="fblazer0" width="28" height="28" patternUnits="userSpaceOnUse" patternTransform="rotate(0)"><rect width="28" height="28" fill="#9d9a94"/><rect width="14" height="14" fill="#666460" opacity="0.5"/><rect x="14" y="14" width="14" height="14" fill="#666460" opacity="0.5"/></pattern></defs><g><path d="M 200 70 L 144 84 L 100 340 L 142 348 L 170 240 L 168 430 L 256 430 L 256 430 L 344 430 L 342 240 L 370 348 L 412 340 L 368 84 L 312 70 Z" fill="url(#fblazer0)" stroke="#26262a" stroke-width="3.5" stroke-linejoin="round"/><path d="M 200 70 L 256 250 L 312 70 L 292 58 L 256 170 L 220 58 Z" fill="#87847f" stroke="#26262a" stroke-width="3.5" stroke-linejoin="round"/><circle cx="256" cy="290" r="6" fill="#d8d3c8" stroke="#26262a" stroke-width="3.5"/><path d="M 180 330 h 40" fill="none" stroke="#26262a" stroke-width="3.5" stroke-linecap="round" stroke-linejoin="round" opacity="0.5"/><path d="M 292 330 h 40" fill="none" stroke="#26262a" stroke-width="3.5" stroke-linecap="round" stroke-linejoin="round" opacity="0.5"/></g></svg>