<svg xmlns="http://www.w3.org/2000/svg" viewBox="0 0 512 512" width="512" height="512"><g><rect x="84" y="118" width="76" height="280" rx="34" fill="#2c4fa3" stroke="#26262a" stroke-width="3.5"/><path d="M 90 164.67 Q 122 172.67 154 164.67" fill="none" stroke="#26262a" stroke-width="3.5" stroke-linecap="round" stroke-linejoin="round" opacity="0.55"/><path d="M 90 211.33 Q 122 219.33 154 211.33" fill="none" stroke="#26262a" stroke-width="3.5" stroke-linecap="round" stroke-linejoin="round" opacity="0.55"/><path d="M 90 258 Q 122 266 154 258" fill="none" stroke="#26262a" stroke-width="3.5" stroke-linecap="round" stroke-linejoin="round" opacity="0.55"/><path d="M 90 304.67 Q 122 312.67 154 304.67" fill="none" stroke="#26262a" stroke-width="3.5" stroke-linecap="round" stroke-linejoin="round" opacity="0.55"/><path d="M 90 351.33 Q 122 359.33 154 351.33" fill="none" stroke="#26262a" stroke-width="3.5" stroke-linecap="round" stroke-linejoin="round" opacity="0.55"/><rect x="352" y="118" width="76" height="280" rx="34" fill="#2c4fa3" stroke="#26262a" stroke-width="3.5"/><path d="M 358 164.67 Q 390 172.67 422 164.67" fill="none" stroke="#26262a" stroke-width="3.5" stroke-linecap="round" stroke-linejoin="round" opacity="0.55"/><path d="M 358 211.33 Q 390 219.33 422 211.33" fill="none" stroke="#26262a" stroke-width="3.5" stroke-linecap="round" stroke-linejoin="round" opacity="0.55"/><path d="M 358 258 Q 390 266 422 258" fill="none" stroke="#26262a" stroke-width="3.5" stroke-linecap="round" stroke-linejoin="round" opacity="0.55"/><path d="M 358 304.67 Q 390 312.67 422 304.67" fill="none" stroke="#26262a" stroke-width="3.5" stroke-linecap="round" stroke-linejoin="round" opacity="0.55"/><path d="M 358 351.33 Q 390 359.33 422 351.33" fill="none" stroke="#26262a" stroke-width="3.5" stroke-linecap="round" stroke-linejoin="round" opacity="0.55"/><rect x="146" y="104" width="220" height="344" rx="30" fill="#2c4fa3" stroke="#26262a" stroke-width="3.5"/><path d="M 150 153.14 Q 256 161.14 362 153.14" fill="none" stroke="#26262a" stroke-width="3.5" stroke-linecap="round" stroke-linejoin="round" opacity="0.55"/><path d="M 150 202.29 Q 256 210.29 362 202.29" fill="none" stroke="#26262a" stroke-width="3.5" stroke-linecap="round" stroke-linejoin="round" opacity="0.55"/><path d="M 150 251.43 Q 256 259.43 362 251.43" fill="none" stroke="#26262a" stroke-width="3.5" stroke-linecap="round" stroke-linejoin="round" opacity="0.55"/><path d="M 150 300.57 Q 256 308.57 362 300.57" fill="none" stroke="#26262a" stroke-width="3.5" stroke-linecap="round" stroke-linejoin="round" opacity="0.55"/><path d="M 150 349.71 Q 256 357.71 362 349.71" fill="none" stroke="#26262a" stroke-width="3.5" stroke-linecap="round" stroke-linejoin="round" opacity="0.55"/><path d="M 150 398.86 Q 256 406.86 362 398.86" fill="none" stroke="#26262a" stroke-width="3.5" stroke-linecap="round" stroke-linejoin="round" opacity="0.55"/><path d="M 196 104 L 208 66 Q 256 84 304 66 L 316 104 Z" fill="#27468f" stroke="#26262a" stroke-width="3.5" stroke-linejoin="round"/><path d="M 256 104 L 256 448" fill="none" stroke="#26262a" stroke-width="3.5" stroke-linecap="round" stroke-linejoin="round" opacity="0.7"/><path d="M 256 104 L 256 448" fill="none" stroke="#ffffff" stroke-width="3.5" stroke-linecap="round" stroke-linejoin="round" stroke-dasharray="3 6" opacity="0.5"/></g></svg>