<svg xmlns="http://www.w3.org/2000/svg" viewBox="0 0 512 512" width="512" height="512"><g><path d="M 196 60 L 140 74 L 96 360 L 140 366 L 166 250 L 144 490 L 256 490 L 256 490 L 368 490 L 346 250 L 372 366 L 416 360 L 372 74 L 316 60 Z" fill="#1f2a44" stroke="#26262a" stroke-width="3.5" stroke-linejoin="round"/><path d="M 196 60 L 256 200 L 316 60 L 300 48 L 256 150 L 212 48 Z" fill="#1b253c" stroke="#26262a" stroke-width="3.5" stroke-linejoin="round"/><rect x="160" y="264" width="192" height="22" rx="0" fill="#1c263d" stroke="#26262a" stroke-width="3.5"/><rect x="246" y="260" width="20" height="30" rx="2" fill="#1f2a44" stroke="#26262a" stroke-width="3.5"/><circle cx="232" cy="220" r="5" fill="#d8d3c8" stroke="#26262a" stroke-width="3.5"/><circle cx="232" cy="310" r="5" fill="#d8d3c8" stroke="#26262a" stroke-width="3.5"/><circle cx="232" cy="400" r="5" fill="#d8d3c8" stroke="#26262a" stroke-width="3.5"/><circle cx="280" cy="220" r="5" fill="#d8d3c8" stroke="#26262a" stroke-width="3.5"/><circle cx="280" cy="310" r="5" fill="#d8d3c8" stroke="#26262a" stroke-width="3.5"/><circle cx="280" cy="400" r="5" fill="#d8d3c8" stroke="#26262a" stroke-width="3.5"/><path d="M 166 250 L 144 490" fill="none" stroke="#26262a" stroke-width="3.5" stroke-linecap="round" stroke-linejoin="round" opacity="0.25"/><path d="M 346 250 L 368 490" fill="none" stroke="#26262a" stroke-width="3.5" stroke-linecap="round" stroke-linejoin="round" opacity="0.25"/></g></svg>